{"glyphs":{"0":{"ha":874,"x_min":21,"x_max":853,"o":"m 438 -22 q 225 14 321 -22 q 75 113 129 50 q 21 254 21 176 l 21 635 q 75 776 21 713 q 225 875 129 839 q 438 911 321 911 q 649 875 554 911 q 799 776 744 839 q 853 635 853 713 l 853 254 q 799 113 853 176 q 649 14 744 50 q 438 -22 554 -22 m 381 149 q 397 95 381 117 q 436 74 413 74 q 476 95 460 74 q 493 149 493 117 l 493 742 q 476 794 493 772 q 436 815 460 815 q 397 794 413 815 q 381 742 381 774 l 381 149 z "},"1":{"ha":496,"x_min":42,"x_max":454,"o":"m 131 729 l 42 835 l 42 889 l 454 889 l 454 0 l 131 0 l 131 729 z "},"2":{"ha":874,"x_min":42,"x_max":832,"o":"m 42 190 q 204 338 72 222 q 467 578 372 485 q 561 713 561 672 q 533 735 561 735 q 351 661 481 735 q 129 518 222 588 l 46 786 q 479 911 276 911 q 744 847 656 911 q 832 668 832 783 q 769 503 832 585 q 629 359 707 421 q 446 226 551 297 q 407 200 435 219 q 367 171 379 181 q 356 156 356 161 q 369 150 356 150 q 526 192 406 150 q 832 314 646 233 l 832 0 l 42 0 l 42 190 z "},"3":{"ha":869,"x_min":42,"x_max":828,"o":"m 465 -22 q 274 -1 361 -22 q 122 94 186 21 q 57 313 57 168 l 332 313 q 358 193 332 235 q 436 151 385 151 q 489 172 471 151 q 507 225 507 192 q 485 300 507 261 q 424 365 464 339 q 332 390 383 390 l 332 539 q 430 559 388 539 q 494 609 472 579 q 517 667 517 639 q 499 706 517 690 q 449 721 482 721 q 350 682 399 721 q 225 563 301 643 l 203 539 l 42 786 q 262 875 140 839 q 465 911 383 911 q 629 881 556 911 q 744 797 703 850 q 786 679 786 744 q 738 533 786 592 q 615 475 689 475 q 724 448 675 475 q 800 374 772 421 q 828 269 828 328 q 781 121 828 188 q 650 16 733 54 q 465 -22 567 -22 z "},"4":{"ha":828,"x_min":42,"x_max":786,"o":"m 42 310 l 375 889 l 740 889 l 740 310 l 786 310 l 786 171 l 740 171 l 740 0 l 417 0 l 417 171 l 42 171 l 42 310 m 417 310 l 417 582 l 278 310 l 417 310 z "},"5":{"ha":869,"x_min":57,"x_max":774,"o":"m 411 -22 q 244 10 325 -22 q 110 117 164 42 q 57 313 57 192 l 332 313 q 357 194 332 236 q 426 151 382 151 q 476 170 461 151 q 492 213 490 189 q 494 297 494 238 q 468 388 494 358 q 392 424 442 417 q 247 432 343 432 l 188 432 l 67 432 l 67 889 l 743 889 l 697 590 l 163 590 l 163 546 l 456 546 q 774 281 774 546 q 674 54 774 131 q 411 -22 575 -22 z "},"6":{"ha":856,"x_min":21,"x_max":835,"o":"m 429 -22 q 126 64 232 -22 q 21 311 21 150 l 21 428 q 429 910 21 910 q 694 859 590 910 q 799 704 799 808 l 799 674 l 490 674 l 490 732 q 473 783 490 765 q 429 801 456 801 q 387 784 403 801 q 369 735 371 767 l 364 549 q 378 588 365 565 q 425 627 392 610 q 513 644 458 644 q 675 605 601 644 q 792 490 749 565 q 835 311 835 415 q 729 65 835 151 q 429 -22 624 -22 m 364 150 q 382 97 364 118 q 429 75 400 75 q 474 97 456 75 q 493 150 493 118 l 493 440 q 474 492 493 471 q 428 514 456 514 q 382 493 400 514 q 364 440 364 472 l 364 150 z "},"7":{"ha":697,"x_min":24,"x_max":656,"o":"m 249 596 l 24 596 l 71 889 l 656 889 l 365 0 l 42 0 l 249 596 z "},"8":{"ha":833,"x_min":21,"x_max":838,"o":"m 429 -21 q 127 53 233 -21 q 21 263 21 126 q 63 410 21 347 q 185 507 104 472 q 86 683 86 565 q 175 852 86 793 q 429 911 264 911 q 685 852 596 911 q 774 683 774 793 q 675 507 774 565 q 797 409 756 471 q 838 263 838 347 q 732 53 838 126 q 429 -21 626 -21 m 364 153 q 383 99 364 119 q 429 78 401 78 q 477 99 458 78 q 496 153 496 119 l 496 379 q 476 432 496 411 q 429 453 457 453 q 383 432 401 453 q 364 379 364 411 l 364 153 m 364 625 q 383 572 364 594 q 429 550 401 550 q 476 572 457 550 q 496 625 496 593 l 496 739 q 477 792 496 772 q 429 813 458 813 q 383 792 401 813 q 364 739 364 772 l 364 625 z "},"9":{"ha":856,"x_min":21,"x_max":835,"o":"m 426 917 q 729 831 624 917 q 835 583 835 744 l 835 467 q 426 -15 835 -15 q 161 35 265 -15 q 57 190 57 86 l 57 221 l 365 221 l 365 163 q 383 111 365 129 q 426 93 400 93 q 469 110 453 93 q 486 160 485 128 l 492 346 q 477 307 490 329 q 431 267 464 285 q 343 250 397 250 q 181 290 254 250 q 64 404 107 329 q 21 583 21 479 q 126 830 21 743 q 426 917 232 917 m 363 454 q 381 402 363 424 q 428 381 400 381 q 474 401 456 381 q 492 454 492 422 l 492 744 q 474 798 492 776 q 426 819 456 819 q 381 798 400 819 q 363 744 363 776 l 363 454 z "}," ":{"ha":278,"x_min":0,"x_max":0,"o":""}," ":{"ha":278,"x_min":0,"x_max":0,"o":""},"A":{"ha":924,"x_min":0,"x_max":924,"o":"m 300 889 l 624 889 l 924 0 l 590 0 l 519 208 l 324 208 l 324 0 l 0 0 l 300 889 m 458 386 l 324 779 l 324 386 l 458 386 z "},"B":{"ha":838,"x_min":42,"x_max":817,"o":"m 582 -28 q 460 2 504 -28 q 382 79 417 32 q 372 92 379 83 q 359 105 364 101 q 350 108 354 108 q 338 86 340 108 l 338 0 l 42 0 l 42 889 l 338 889 l 338 742 q 408 866 354 819 q 546 913 463 913 q 701 857 639 913 q 764 699 764 801 q 740 607 764 653 q 675 532 717 561 q 582 503 633 503 q 659 482 603 503 q 766 407 715 461 q 817 258 817 353 l 817 192 q 754 35 817 97 q 582 -28 692 -28 m 338 263 q 359 185 338 215 q 413 154 381 154 q 469 185 447 154 q 492 263 492 215 l 492 314 q 478 410 492 375 q 447 462 465 446 q 399 493 429 478 q 359 519 374 507 q 338 554 344 531 l 338 263 m 338 636 q 358 585 338 606 q 410 565 379 565 q 468 585 444 565 q 492 636 492 606 l 492 699 q 469 751 492 731 q 413 772 447 772 q 359 751 381 772 q 338 699 338 731 l 338 636 z "},"C":{"ha":832,"x_min":21,"x_max":811,"o":"m 438 -22 q 129 101 238 -22 q 21 449 21 225 q 128 792 21 672 q 438 911 236 911 q 630 870 546 911 q 761 756 714 829 q 808 588 808 682 q 761 465 808 511 q 644 418 714 418 q 521 470 568 418 q 475 619 474 522 q 531 674 531 619 q 506 778 531 742 q 435 815 481 815 q 358 778 385 815 q 331 674 331 742 l 331 525 q 363 344 331 425 q 451 217 394 263 q 578 171 508 171 q 700 221 647 171 q 789 357 753 271 l 811 357 q 767 188 796 265 q 659 44 739 110 q 438 -22 579 -22 z "},"D":{"ha":831,"x_min":42,"x_max":810,"o":"m 365 0 l 42 0 l 42 889 l 425 889 q 638 845 554 889 q 766 699 722 801 q 810 426 810 597 q 714 99 810 199 q 425 0 618 0 l 365 0 m 424 92 q 464 113 447 92 q 481 164 481 133 l 481 726 q 464 777 481 757 q 424 797 447 797 l 365 797 l 365 92 l 424 92 z "},"E":{"ha":626,"x_min":42,"x_max":585,"o":"m 42 889 l 585 889 l 585 793 l 365 793 l 365 519 l 515 519 l 515 424 l 365 424 l 365 96 l 574 96 l 574 0 l 42 0 l 42 889 z "},"F":{"ha":626,"x_min":42,"x_max":585,"o":"m 42 889 l 585 889 l 585 793 l 365 793 l 365 492 l 515 492 l 515 396 l 365 396 l 365 0 l 42 0 l 42 889 z "},"G":{"ha":831,"x_min":21,"x_max":810,"o":"m 390 -22 q 197 34 281 -22 q 67 197 113 90 q 21 449 21 303 q 128 792 21 672 q 438 911 236 911 q 630 870 546 911 q 761 756 714 829 q 808 588 808 682 q 761 465 808 511 q 644 418 714 418 q 522 463 571 418 q 474 574 474 507 q 481 606 474 596 q 501 622 488 615 q 524 640 517 631 q 531 674 531 650 q 503 774 531 733 q 435 815 475 815 q 360 775 390 815 q 331 674 331 735 l 331 339 q 429 133 331 133 q 508 192 476 133 q 539 339 539 250 l 810 339 l 810 0 l 624 0 l 596 129 q 538 19 585 60 q 390 -22 492 -22 z "},"H":{"ha":843,"x_min":42,"x_max":801,"o":"m 478 424 l 365 424 l 365 0 l 42 0 l 42 889 l 365 889 l 365 519 l 478 519 l 478 889 l 801 889 l 801 0 l 478 0 l 478 424 z "},"I":{"ha":407,"x_min":42,"x_max":365,"o":"m 42 889 l 365 889 l 365 0 l 42 0 l 42 889 z "},"J":{"ha":674,"x_min":42,"x_max":632,"o":"m 369 -19 q 166 53 251 -19 q 42 243 81 125 l 60 243 q 124 172 83 200 q 201 144 165 144 q 275 172 251 144 q 303 244 299 200 q 308 372 308 289 l 308 889 l 632 889 l 632 318 q 575 69 632 157 q 369 -19 518 -19 z "},"K":{"ha":843,"x_min":42,"x_max":801,"o":"m 478 350 q 463 431 478 403 q 422 458 449 458 q 380 430 394 458 q 365 350 365 401 l 365 0 l 42 0 l 42 889 l 365 889 l 365 444 q 403 496 372 456 q 456 635 435 536 q 478 889 478 733 l 801 889 l 801 758 q 746 619 801 675 q 619 535 690 563 q 508 507 549 507 q 676 479 614 507 q 769 369 738 451 q 801 129 801 288 l 801 0 l 478 0 l 478 350 z "},"L":{"ha":615,"x_min":42,"x_max":574,"o":"m 42 889 l 365 889 l 365 96 l 574 96 l 574 0 l 42 0 l 42 889 z "},"M":{"ha":1183,"x_min":42,"x_max":1142,"o":"m 138 658 l 138 0 l 42 0 l 42 889 l 411 889 l 628 207 l 769 889 l 1142 889 l 1142 0 l 818 0 l 818 653 l 683 0 l 360 0 l 138 658 z "},"N":{"ha":797,"x_min":42,"x_max":756,"o":"m 138 658 l 138 0 l 42 0 l 42 889 l 401 889 l 660 124 l 660 889 l 756 889 l 756 0 l 360 0 l 138 658 z "},"O":{"ha":874,"x_min":21,"x_max":853,"o":"m 438 -22 q 124 82 228 -22 q 21 425 21 186 q 68 712 21 606 q 206 865 115 818 q 438 911 297 911 q 667 865 576 911 q 806 711 758 818 q 853 425 853 604 q 749 82 853 186 q 438 -22 646 -22 m 381 149 q 397 95 381 117 q 436 74 413 74 q 476 95 460 74 q 493 149 493 117 l 493 742 q 476 794 493 772 q 436 815 460 815 q 397 794 413 815 q 381 742 381 774 l 381 149 z "},"P":{"ha":788,"x_min":42,"x_max":801,"o":"m 42 889 l 365 889 l 365 740 q 440 865 382 818 q 589 911 497 911 q 698 880 650 911 q 774 791 746 849 q 801 657 801 733 q 766 506 801 563 q 681 424 731 450 q 550 369 631 397 q 450 331 486 349 q 390 281 414 314 q 365 197 365 249 l 365 0 l 42 0 l 42 889 m 389 385 q 433 443 415 414 q 465 526 451 472 q 478 663 478 581 q 463 743 478 715 q 422 771 449 771 q 380 742 394 771 q 365 663 365 714 l 365 354 l 389 385 z "},"Q":{"ha":881,"x_min":21,"x_max":860,"o":"m 586 -150 q 577 -56 586 -81 q 542 -27 568 -32 q 438 -22 517 -22 q 124 82 228 -22 q 21 425 21 186 q 68 712 21 606 q 206 865 115 818 q 438 911 297 911 q 667 865 576 911 q 806 711 758 818 q 853 425 853 604 q 782 124 853 228 q 571 -10 711 19 q 792 -91 725 -28 q 860 -257 860 -154 l 860 -278 l 585 -278 l 586 -150 m 381 149 q 397 95 381 117 q 436 74 413 74 q 476 95 460 74 q 493 149 493 117 l 493 742 q 476 794 493 772 q 436 815 460 815 q 397 794 413 815 q 381 742 381 774 l 381 149 z "},"R":{"ha":824,"x_min":42,"x_max":801,"o":"m 478 0 q 451 267 478 196 q 398 358 424 339 q 365 383 372 376 l 365 0 l 42 0 l 42 889 l 365 889 l 365 740 q 440 865 382 818 q 589 911 497 911 q 698 880 650 911 q 774 791 746 849 q 801 657 801 733 q 766 488 801 549 q 667 405 731 428 q 508 382 604 382 q 621 350 551 382 q 746 242 690 318 q 801 44 801 167 l 801 0 l 478 0 m 365 539 q 380 459 365 488 q 422 431 394 431 q 463 458 449 431 q 478 539 478 486 l 478 663 q 463 743 478 715 q 422 771 449 771 q 380 742 394 771 q 365 663 365 714 l 365 539 z "},"S":{"ha":835,"x_min":21,"x_max":814,"o":"m 438 -21 q 227 12 322 -21 q 76 101 132 44 q 21 229 21 158 q 71 337 21 294 q 200 379 121 379 q 348 333 289 379 q 407 214 407 286 q 402 185 407 193 q 389 174 397 178 q 377 164 381 169 q 374 144 374 158 q 394 110 376 124 q 438 96 411 96 q 488 119 468 96 q 507 179 507 143 q 465 288 507 247 q 336 364 424 328 l 308 375 q 165 441 219 411 q 72 523 111 471 q 33 651 33 575 q 79 785 33 725 q 209 878 125 844 q 404 911 293 911 q 593 885 510 911 q 724 811 676 858 q 772 706 772 764 q 728 633 772 663 q 617 604 683 604 q 486 637 539 604 q 433 719 433 669 q 436 738 433 732 q 447 749 439 743 q 454 768 454 756 q 442 790 454 782 q 407 799 431 799 q 369 783 383 799 q 356 746 356 768 q 372 692 356 714 q 415 653 388 669 q 496 611 442 638 q 528 595 510 604 q 567 575 546 586 q 695 497 644 533 q 780 403 746 460 q 814 268 814 347 q 766 120 814 186 q 633 17 718 54 q 438 -21 547 -21 z "},"T":{"ha":763,"x_min":0,"x_max":763,"o":"m 219 793 l 0 793 l 0 889 l 763 889 l 763 793 l 543 793 l 543 0 l 219 0 l 219 793 z "},"U":{"ha":742,"x_min":42,"x_max":700,"o":"m 372 -18 q 206 26 282 -18 q 86 147 131 71 q 42 313 42 222 l 42 889 l 365 889 l 365 313 q 400 228 365 263 q 485 193 435 193 q 569 228 535 193 q 604 313 604 263 l 604 894 l 700 894 l 700 313 q 656 147 700 222 q 536 26 611 71 q 372 -18 461 -18 z "},"V":{"ha":924,"x_min":0,"x_max":924,"o":"m 0 889 l 339 889 l 613 94 l 613 889 l 924 889 l 624 0 l 300 0 l 0 889 z "},"W":{"ha":1514,"x_min":0,"x_max":1514,"o":"m 0 889 l 339 889 l 613 94 l 613 889 l 929 889 l 1203 94 l 1203 889 l 1514 889 l 1214 0 l 890 0 l 763 410 l 624 0 l 300 0 l 0 889 z "},"X":{"ha":857,"x_min":42,"x_max":815,"o":"m 42 160 q 104 299 42 243 q 245 383 167 356 q 365 410 324 410 q 126 463 210 410 q 42 644 42 515 l 42 889 l 365 889 l 365 568 q 378 488 365 517 q 411 460 390 460 q 469 594 447 460 q 492 889 492 728 l 815 889 l 815 729 q 754 594 815 646 q 617 521 693 543 q 497 499 542 499 q 733 442 650 499 q 815 254 815 385 l 815 0 l 492 0 l 492 331 q 479 410 492 382 q 446 439 467 439 q 385 340 406 439 q 365 0 365 242 l 42 0 l 42 160 z "},"Y":{"ha":924,"x_min":0,"x_max":924,"o":"m 0 889 l 361 889 l 624 358 l 624 889 l 924 889 l 624 282 l 624 0 l 300 0 l 300 282 l 0 889 z "},"Z":{"ha":917,"x_min":21,"x_max":896,"o":"m 444 793 l 90 793 l 90 889 l 868 889 l 444 96 l 896 96 l 896 0 l 21 0 l 444 793 z "},"a":{"ha":822,"x_min":21,"x_max":781,"o":"m 457 256 q 413 447 457 369 q 276 525 368 525 q 172 493 222 525 q 92 411 121 461 l 74 411 q 138 532 89 478 q 256 617 186 586 q 401 647 325 647 q 600 607 514 647 q 733 490 686 567 q 781 310 781 414 l 781 0 l 457 0 l 457 158 q 417 74 446 117 q 341 4 388 32 q 233 -24 294 -24 q 125 5 174 -24 q 49 84 76 33 q 21 197 21 135 q 49 309 21 258 q 125 388 76 360 q 233 417 174 417 q 376 372 311 417 q 457 249 440 326 l 457 256 m 346 196 q 361 138 346 158 q 400 117 376 117 q 440 138 424 117 q 456 197 456 160 q 440 256 456 235 q 400 276 424 276 q 361 256 376 276 q 346 196 346 235 z "},"b":{"ha":822,"x_min":42,"x_max":801,"o":"m 42 792 l 365 792 l 365 478 q 440 602 382 556 q 589 649 497 649 q 697 619 649 649 q 774 537 746 589 q 801 421 801 485 l 801 200 q 774 84 801 136 q 697 2 746 32 q 589 -28 649 -28 q 483 1 522 -28 q 411 76 444 31 q 393 99 401 89 q 378 108 385 108 q 365 86 368 108 l 365 0 l 42 0 l 42 792 m 365 274 q 380 194 365 222 q 422 165 394 165 q 463 193 449 165 q 478 274 478 221 l 478 400 q 463 481 478 453 q 422 508 449 508 q 380 480 394 508 q 365 400 365 451 l 365 274 z "},"c":{"ha":732,"x_min":21,"x_max":711,"o":"m 372 -22 q 112 67 203 -22 q 21 315 21 156 q 112 560 21 475 q 372 646 203 646 q 542 617 465 646 q 665 535 619 589 q 711 411 711 482 q 663 300 711 344 q 547 256 615 256 q 424 305 472 256 q 376 440 376 354 q 429 476 429 440 q 415 531 429 511 q 372 550 400 550 q 331 531 346 550 q 317 476 317 513 l 317 369 q 503 142 317 142 q 610 170 561 142 q 682 240 658 199 l 700 240 q 595 47 671 117 q 372 -22 519 -22 z "},"d":{"ha":822,"x_min":21,"x_max":781,"o":"m 457 86 q 444 108 454 108 q 429 99 438 108 q 411 76 421 89 q 339 1 378 31 q 233 -28 300 -28 q 125 2 174 -28 q 49 84 76 32 q 21 200 21 136 l 21 421 q 49 537 21 485 q 125 619 76 589 q 233 649 174 649 q 383 602 325 649 q 457 478 440 556 l 457 792 l 781 792 l 781 0 l 457 0 l 457 86 m 344 274 q 359 193 344 221 q 400 165 374 165 q 442 194 428 165 q 457 274 457 222 l 457 400 q 442 480 457 451 q 400 508 428 508 q 359 481 374 508 q 344 400 344 453 l 344 274 z "},"e":{"ha":732,"x_min":21,"x_max":711,"o":"m 372 -22 q 112 67 203 -22 q 21 315 21 156 q 112 560 21 475 q 372 646 203 646 q 542 617 465 646 q 665 535 619 589 q 711 411 711 482 q 657 300 711 344 q 521 256 603 256 q 319 311 381 256 q 503 142 342 142 q 610 170 561 142 q 682 240 658 199 l 700 240 q 595 47 671 117 q 372 -22 519 -22 m 317 369 q 318 332 317 344 q 369 317 349 317 q 429 422 429 317 q 372 550 429 550 q 317 422 317 550 l 317 369 z "},"f":{"ha":572,"x_min":42,"x_max":531,"o":"m 76 475 l 42 475 l 42 624 l 76 624 l 76 650 q 105 767 76 715 q 185 848 133 818 q 304 878 238 878 q 417 853 365 878 q 500 784 469 828 q 531 688 531 740 l 513 688 q 499 724 513 710 q 463 738 485 738 q 413 711 426 738 q 400 629 400 685 l 400 624 l 518 624 l 518 475 l 400 475 l 400 0 l 76 0 l 76 475 z "},"g":{"ha":833,"x_min":21,"x_max":781,"o":"m 433 -300 q 267 -266 343 -300 q 142 -172 192 -232 q 74 -37 92 -112 l 92 -37 q 164 -108 115 -79 q 271 -136 213 -136 q 457 86 454 -136 q 444 108 454 108 q 429 99 438 108 q 411 76 421 89 q 339 1 378 31 q 233 -28 300 -28 q 125 2 174 -28 q 49 84 76 32 q 21 200 21 136 l 21 421 q 49 537 21 485 q 125 619 76 589 q 233 649 174 649 q 383 602 325 649 q 457 478 440 556 l 457 625 l 781 625 l 781 38 q 735 -135 781 -58 q 611 -256 690 -212 q 433 -300 532 -300 m 344 274 q 359 193 344 221 q 400 165 374 165 q 442 194 428 165 q 457 274 457 222 l 457 400 q 442 480 457 451 q 400 508 428 508 q 359 481 374 508 q 344 400 344 453 l 344 274 z "},"h":{"ha":843,"x_min":42,"x_max":801,"o":"m 42 792 l 365 792 l 365 478 q 440 602 382 556 q 589 649 497 649 q 697 619 649 649 q 774 537 746 589 q 801 421 801 485 l 801 0 l 478 0 l 478 400 q 463 481 478 453 q 422 508 449 508 q 380 480 394 508 q 365 400 365 451 l 365 0 l 42 0 l 42 792 z "},"i":{"ha":429,"x_min":42,"x_max":388,"o":"m 53 625 l 376 625 l 376 0 l 53 0 l 53 625 m 42 840 q 65 926 42 886 q 128 989 89 965 q 215 1013 168 1013 q 301 989 261 1013 q 364 926 340 965 q 388 840 388 886 q 364 753 388 793 q 301 690 340 714 q 215 667 261 667 q 92 717 143 667 q 42 840 42 768 z "},"j":{"ha":429,"x_min":-78,"x_max":388,"o":"m 164 -300 q 41 -270 96 -300 q -46 -188 -14 -240 q -78 -72 -78 -136 l -78 -51 l -60 -51 q -45 -131 -60 -103 q -3 -160 -31 -160 q 38 -132 24 -160 q 53 -51 53 -104 l 53 625 l 376 625 l 376 -72 q 349 -188 376 -136 q 272 -270 321 -240 q 164 -300 224 -300 m 42 840 q 65 926 42 886 q 128 989 89 965 q 215 1013 168 1013 q 301 989 261 1013 q 364 926 340 965 q 388 840 388 886 q 364 753 388 793 q 301 690 340 714 q 215 667 261 667 q 92 717 143 667 q 42 840 42 768 z "},"k":{"ha":843,"x_min":42,"x_max":801,"o":"m 478 192 q 463 272 478 244 q 422 300 449 300 q 380 272 394 300 q 365 192 365 243 l 365 0 l 42 0 l 42 792 l 365 792 l 365 286 q 386 311 368 289 q 431 371 413 340 q 464 463 450 401 q 478 621 478 524 l 801 621 l 801 600 q 746 460 801 517 q 619 376 690 404 q 508 349 549 349 q 730 299 658 349 q 801 129 801 250 l 801 0 l 478 0 l 478 192 z "},"l":{"ha":407,"x_min":42,"x_max":365,"o":"m 42 792 l 365 792 l 365 0 l 42 0 l 42 792 z "},"m":{"ha":1279,"x_min":42,"x_max":1238,"o":"m 42 625 l 365 625 l 365 538 q 457 619 399 589 q 589 649 515 649 q 710 610 657 649 q 786 508 763 572 q 878 610 814 572 q 1025 649 943 649 q 1133 619 1085 649 q 1210 537 1182 589 q 1238 421 1238 485 l 1238 0 l 914 0 l 914 400 q 899 481 914 453 q 858 508 885 508 q 816 480 831 508 q 801 400 801 451 l 801 0 l 478 0 l 478 400 q 463 481 478 453 q 422 508 449 508 q 380 480 394 508 q 365 400 365 451 l 365 0 l 42 0 l 42 625 z "},"n":{"ha":843,"x_min":42,"x_max":801,"o":"m 42 625 l 365 625 l 365 478 q 440 602 382 556 q 589 649 497 649 q 697 619 649 649 q 774 537 746 589 q 801 421 801 485 l 801 0 l 478 0 l 478 400 q 463 481 478 453 q 422 508 449 508 q 380 480 394 508 q 365 400 365 451 l 365 0 l 42 0 l 42 625 z "},"o":{"ha":744,"x_min":21,"x_max":724,"o":"m 372 -15 q 112 70 203 -15 q 21 315 21 156 q 112 560 21 475 q 372 646 203 646 q 633 560 542 646 q 724 315 724 475 q 633 70 724 156 q 372 -15 542 -15 m 317 156 q 333 102 317 124 q 372 81 349 81 q 413 102 396 81 q 429 156 429 124 l 429 476 q 413 528 429 507 q 372 550 396 550 q 333 529 349 550 q 317 476 317 508 l 317 156 z "},"p":{"ha":822,"x_min":42,"x_max":801,"o":"m 42 625 l 365 625 l 365 478 q 440 602 382 556 q 589 649 497 649 q 697 619 649 649 q 774 537 746 589 q 801 421 801 485 l 801 200 q 774 84 801 136 q 697 2 746 32 q 589 -28 649 -28 q 483 1 522 -28 q 411 76 444 31 q 393 99 401 89 q 378 108 385 108 q 365 86 368 108 l 365 -167 l 42 -167 l 42 625 m 365 274 q 380 194 365 222 q 422 165 394 165 q 463 193 449 165 q 478 274 478 221 l 478 400 q 463 481 478 453 q 422 508 449 508 q 380 480 394 508 q 365 400 365 451 l 365 274 z "},"q":{"ha":822,"x_min":21,"x_max":781,"o":"m 457 86 q 444 108 454 108 q 429 99 438 108 q 411 76 421 89 q 339 1 378 31 q 233 -28 300 -28 q 125 2 174 -28 q 49 84 76 32 q 21 200 21 136 l 21 421 q 49 537 21 485 q 125 619 76 589 q 233 649 174 649 q 383 602 325 649 q 457 478 440 556 l 457 625 l 781 625 l 781 -167 l 457 -167 l 457 86 m 344 274 q 359 193 344 221 q 400 165 374 165 q 442 194 428 165 q 457 274 457 222 l 457 400 q 442 480 457 451 q 400 508 428 508 q 359 481 374 508 q 344 400 344 453 l 344 274 z "},"r":{"ha":781,"x_min":42,"x_max":781,"o":"m 42 625 l 365 625 l 365 481 q 425 600 379 553 q 549 647 471 647 q 667 619 614 647 q 750 543 719 592 q 781 435 781 494 q 733 307 781 358 q 613 256 685 256 q 490 300 539 256 q 442 411 442 344 q 449 447 442 439 q 471 457 456 454 q 492 467 485 460 q 499 501 499 475 q 485 536 499 522 q 451 550 471 550 q 392 502 418 550 q 365 400 365 454 l 365 0 l 42 0 l 42 625 z "},"s":{"ha":733,"x_min":32,"x_max":713,"o":"m 383 -21 q 201 0 281 -21 q 76 58 121 21 q 32 146 32 96 q 67 217 32 189 q 163 246 103 246 q 281 219 231 246 q 331 151 331 192 q 285 114 285 151 q 304 77 285 92 q 353 63 324 63 q 397 77 379 63 q 415 114 415 92 q 367 183 415 153 q 250 242 319 213 q 217 256 219 254 q 79 345 126 299 q 32 460 32 392 q 72 555 32 513 q 185 622 111 597 q 356 646 258 646 q 520 627 447 646 q 635 575 593 608 q 676 499 676 542 q 647 438 676 463 q 574 414 618 414 q 498 431 531 414 q 447 471 465 447 q 429 514 429 494 q 449 522 440 514 q 458 543 458 531 q 447 565 458 557 q 419 574 436 574 q 386 562 399 574 q 374 532 374 550 q 399 482 374 506 q 503 419 425 458 q 613 356 569 385 q 684 286 656 328 q 713 186 713 244 q 669 81 713 128 q 551 6 626 33 q 383 -21 476 -21 z "},"t":{"ha":558,"x_min":42,"x_max":531,"o":"m 42 476 l 42 625 l 115 625 l 385 793 l 400 793 l 400 625 l 518 625 l 518 476 l 400 476 l 400 226 q 413 144 400 171 q 463 118 426 118 q 499 132 485 118 q 513 168 513 146 l 531 168 q 499 70 531 114 q 416 2 467 26 q 311 -22 365 -22 q 141 42 206 -22 q 76 206 76 106 l 76 476 l 42 476 z "},"u":{"ha":843,"x_min":42,"x_max":801,"o":"m 801 0 l 478 0 l 478 147 q 403 23 461 69 q 254 -24 346 -24 q 146 6 194 -24 q 69 88 97 36 q 42 204 42 140 l 42 625 l 365 625 l 365 225 q 380 144 365 172 q 421 117 394 117 q 463 145 449 117 q 478 225 478 174 l 478 625 l 801 625 l 801 0 z "},"v":{"ha":763,"x_min":0,"x_max":763,"o":"m 0 625 l 324 625 l 460 178 l 453 625 l 763 625 l 543 0 l 219 0 l 0 625 z "},"w":{"ha":1215,"x_min":0,"x_max":1215,"o":"m 608 183 l 543 0 l 219 0 l 0 625 l 324 625 l 460 178 l 453 625 l 776 625 l 913 178 l 906 625 l 1215 625 l 996 0 l 672 0 l 608 183 z "},"x":{"ha":857,"x_min":42,"x_max":815,"o":"m 42 21 q 104 160 42 104 q 245 244 167 217 q 365 271 324 271 q 126 324 210 271 q 42 506 42 376 l 42 625 l 365 625 l 365 429 q 378 349 365 378 q 411 321 390 321 q 470 399 449 321 q 492 625 492 478 l 815 625 l 815 604 q 754 466 815 521 q 616 385 693 411 q 497 360 539 360 q 733 303 650 360 q 815 115 815 246 l 815 0 l 492 0 l 492 192 q 479 272 492 243 q 446 300 467 300 q 387 224 408 300 q 365 0 365 147 l 42 0 l 42 21 z "},"y":{"ha":843,"x_min":42,"x_max":781,"o":"m 433 -300 q 267 -266 343 -300 q 142 -172 192 -232 q 74 -37 92 -112 l 92 -37 q 164 -108 115 -79 q 271 -136 213 -136 q 457 88 454 -136 q 378 6 431 35 q 254 -24 326 -24 q 146 6 194 -24 q 69 88 97 36 q 42 204 42 140 l 42 625 l 365 625 l 365 225 q 380 144 365 172 q 421 117 394 117 q 457 135 442 117 l 457 625 l 781 625 l 781 38 q 735 -135 781 -58 q 611 -256 690 -212 q 433 -300 532 -300 z "},"z":{"ha":746,"x_min":21,"x_max":725,"o":"m 293 447 l 63 447 l 63 625 l 725 625 l 453 178 l 693 178 l 693 0 l 21 0 l 293 447 z "},".":{"ha":388,"x_min":69,"x_max":318,"o":"m 194 -1 q 106 35 143 -1 q 69 124 69 72 q 106 211 69 175 q 194 247 143 247 q 282 211 246 247 q 318 124 318 175 q 282 35 318 72 q 194 -1 246 -1 z "},",":{"ha":263,"x_min":25,"x_max":243,"o":"m 56 179 l 243 179 l 147 -85 l 25 -85 l 56 179 z "},":":{"ha":393,"x_min":69,"x_max":324,"o":"m 200 331 q 112 367 149 331 q 75 456 75 404 q 112 543 75 507 q 200 579 149 579 q 288 543 251 579 q 324 456 324 507 q 288 367 324 404 q 200 331 251 331 m 194 -22 q 106 15 143 -22 q 69 103 69 51 q 106 190 69 154 q 194 226 143 226 q 282 190 246 226 q 318 103 318 154 q 282 15 318 51 q 194 -22 246 -22 z "},";":{"ha":388,"x_min":69,"x_max":318,"o":"m 194 331 q 106 367 143 331 q 69 456 69 404 q 106 543 69 507 q 194 579 143 579 q 282 543 246 579 q 318 456 318 507 q 282 367 318 404 q 194 331 246 331 m 115 179 l 303 179 l 207 -85 l 85 -85 l 115 179 z "},"…":{"ha":833,"x_min":69,"x_max":318,"o":"m 194 -1 q 106 35 143 -1 q 69 124 69 72 q 106 211 69 175 q 194 247 143 247 q 282 211 246 247 q 318 124 318 175 q 282 35 318 72 q 194 -1 246 -1 z "},"·":{"ha":388,"x_min":69,"x_max":318,"o":"m 194 197 q 106 234 143 197 q 69 322 69 271 q 106 410 69 374 q 194 446 143 446 q 282 410 246 446 q 318 322 318 374 q 282 234 318 271 q 194 197 246 197 z "},"•":{"ha":510,"x_min":69,"x_max":440,"o":"m 256 136 q 163 161 206 136 q 94 229 119 186 q 69 322 69 272 q 94 415 69 372 q 163 482 119 457 q 256 507 206 507 q 348 482 306 507 q 415 415 390 457 q 440 322 440 372 q 415 229 440 272 q 348 161 390 186 q 256 136 306 136 z "},"*":{"ha":369,"x_min":42,"x_max":328,"o":"m 42 804 l 118 833 l 42 863 l 85 943 l 153 889 l 139 972 l 229 972 l 217 889 l 282 942 l 328 864 l 250 833 l 326 804 l 281 725 l 215 778 l 229 694 l 139 694 l 153 779 l 89 726 l 42 804 z "},"#":{"ha":951,"x_min":42,"x_max":910,"o":"m 436 138 l 367 138 l 328 0 l 71 0 l 110 138 l 43 138 l 42 368 l 176 368 l 193 428 l 108 428 l 107 658 l 260 658 l 325 889 l 583 889 l 517 658 l 586 658 l 651 889 l 910 889 l 843 658 l 908 658 l 910 428 l 778 428 l 760 368 l 844 368 l 844 138 l 693 138 l 654 0 l 397 0 l 436 138 m 503 368 l 519 428 l 451 428 l 433 368 l 503 368 z "},"/":{"ha":554,"x_min":22,"x_max":536,"o":"m 347 1019 l 536 1019 l 210 -110 l 22 -110 l 347 1019 z "},"\\":{"ha":554,"x_min":22,"x_max":536,"o":"m 349 -110 l 22 1019 l 211 1019 l 536 -110 l 349 -110 z "},"-":{"ha":554,"x_min":69,"x_max":485,"o":"m 69 404 l 485 404 l 485 176 l 69 176 l 69 404 z "},"–":{"ha":968,"x_min":69,"x_max":899,"o":"m 69 404 l 899 404 l 899 176 l 69 176 l 69 404 z "},"—":{"ha":1375,"x_min":69,"x_max":1306,"o":"m 69 404 l 1306 404 l 1306 176 l 69 176 l 69 404 z "},"_":{"ha":968,"x_min":69,"x_max":899,"o":"m 69 3 l 899 3 l 899 -225 l 69 -225 l 69 3 z "},"(":{"ha":556,"x_min":69,"x_max":486,"o":"m 486 -158 q 274 -92 369 -158 q 124 92 179 -25 q 69 354 69 210 q 124 638 69 511 q 274 838 179 765 q 486 911 369 911 l 486 865 q 386 823 426 865 q 346 717 346 781 l 346 38 q 386 -70 346 -28 q 486 -112 426 -112 l 486 -158 z "},")":{"ha":556,"x_min":69,"x_max":486,"o":"m 69 -112 q 169 -70 129 -112 q 210 38 210 -28 l 210 717 q 169 823 210 781 q 69 865 129 865 l 69 911 q 281 838 186 911 q 431 638 376 765 q 486 354 486 511 q 431 92 486 210 q 281 -92 376 -25 q 69 -158 186 -158 l 69 -112 z "},"{":{"ha":650,"x_min":69,"x_max":581,"o":"m 561 -164 q 342 -130 428 -164 q 214 -15 257 -96 q 171 201 171 65 q 144 308 171 269 q 69 351 118 347 l 69 396 q 144 438 118 399 q 171 544 171 476 q 214 763 171 682 q 342 877 257 843 q 561 911 426 911 l 581 911 l 581 865 l 561 865 q 425 544 425 865 q 391 427 425 481 q 290 374 357 374 q 391 319 357 374 q 425 201 425 265 q 561 -118 425 -118 l 581 -118 l 581 -164 l 561 -164 z "},"}":{"ha":672,"x_min":92,"x_max":603,"o":"m 92 -164 l 92 -118 l 111 -118 q 247 201 247 -118 q 281 319 247 265 q 382 374 315 374 q 281 427 315 374 q 247 544 247 481 q 111 865 247 865 l 92 865 l 92 911 l 111 911 q 331 877 246 911 q 458 763 415 843 q 501 544 501 682 q 528 438 501 476 q 603 396 554 399 l 603 351 q 528 308 554 347 q 501 201 501 269 q 458 -15 501 65 q 330 -130 415 -96 q 111 -164 244 -164 l 92 -164 z "},"[":{"ha":556,"x_min":69,"x_max":486,"o":"m 69 890 l 486 890 l 486 844 l 346 844 l 346 -112 l 486 -112 l 486 -158 l 69 -158 l 69 890 z "},"]":{"ha":556,"x_min":69,"x_max":486,"o":"m 69 -158 l 69 -112 l 210 -112 l 210 844 l 69 844 l 69 890 l 486 890 l 486 -158 l 69 -158 z "},"‚":{"ha":833,"x_min":25,"x_max":243,"o":"m 56 179 l 243 179 l 147 -85 l 25 -85 l 56 179 z "},"„":{"ha":833,"x_min":25,"x_max":243,"o":"m 56 179 l 243 179 l 147 -85 l 25 -85 l 56 179 z "},"“":{"ha":567,"x_min":114,"x_max":542,"o":"m 511 647 l 324 647 l 419 911 l 542 911 l 511 647 m 210 911 l 332 911 l 301 647 l 114 647 l 210 911 z "},"”":{"ha":567,"x_min":114,"x_max":542,"o":"z "},"‘":{"ha":357,"x_min":25,"x_max":243,"o":"m 213 647 l 25 647 l 121 911 l 243 911 l 213 647 z "},"’":{"ha":357,"x_min":69,"x_max":288,"o":"m 100 911 l 288 911 l 192 647 l 69 647 l 100 911 z "},"«":{"ha":1111,"x_min":42,"x_max":1069,"o":"m 42 383 l 368 697 l 676 697 l 354 383 l 676 69 l 368 69 l 42 383 m 435 383 l 761 697 l 1069 697 l 747 383 l 1069 69 l 761 69 l 435 383 z "},"»":{"ha":1111,"x_min":42,"x_max":1069,"o":"m 435 69 l 757 383 l 435 697 l 743 697 l 1069 383 l 743 69 l 435 69 m 364 383 l 42 697 l 350 697 l 676 383 l 350 69 l 42 69 l 364 383 z "},"‹":{"ha":718,"x_min":42,"x_max":676,"o":"m 42 383 l 368 697 l 676 697 l 354 383 l 676 69 l 368 69 l 42 383 z "},"›":{"ha":718,"x_min":42,"x_max":676,"o":"m 42 3 l 364 317 l 42 631 l 350 631 l 676 317 l 350 3 l 42 3 z "},"\"":{"ha":507,"x_min":69,"x_max":438,"o":"m 69 911 l 246 911 l 204 647 l 111 647 l 69 911 m 261 911 l 438 911 l 396 647 l 303 647 l 261 911 z "},"'":{"ha":315,"x_min":69,"x_max":246,"o":"m 69 911 l 246 911 l 204 647 l 111 647 l 69 911 z "},"¶":{"ha":813,"x_min":69,"x_max":743,"o":"m 342 347 q 206 384 268 347 q 106 483 143 421 q 69 619 69 546 q 106 756 69 693 q 206 854 143 818 q 342 890 268 890 l 508 890 l 508 1 l 342 1 l 342 347 m 576 889 l 743 889 l 743 0 l 576 0 l 576 889 z "},"§":{"ha":663,"x_min":21,"x_max":642,"o":"m 349 -165 q 21 -65 164 -165 l 21 143 q 190 41 86 97 q 338 -15 293 -15 q 363 4 363 -15 q 335 44 363 25 q 246 94 307 64 q 133 156 178 128 q 54 227 88 185 q 21 324 21 269 q 165 488 21 451 q 60 572 99 526 q 21 675 21 617 q 98 813 21 769 q 325 856 175 856 q 501 831 413 856 q 638 765 590 807 l 572 574 q 435 685 525 622 q 303 749 344 749 q 279 722 279 749 q 307 685 279 704 q 394 635 335 665 q 519 562 471 594 q 605 483 568 529 q 642 381 642 438 q 609 278 642 321 q 515 213 576 236 q 608 128 574 172 q 642 29 642 83 q 564 -115 642 -65 q 349 -165 486 -165 m 279 376 q 284 355 279 364 q 306 339 289 346 q 335 331 321 331 q 354 336 346 331 q 363 351 363 342 q 357 373 363 364 q 336 390 351 382 q 304 400 317 400 q 286 394 293 400 q 279 376 279 388 z "},"©":{"ha":1331,"x_min":69,"x_max":1261,"o":"m 665 -303 q 366 -223 503 -303 q 149 -6 229 -143 q 69 293 69 131 q 149 592 69 456 q 366 809 229 729 q 665 889 503 889 q 965 809 828 889 q 1181 592 1101 729 q 1261 293 1261 456 q 1181 -6 1261 131 q 965 -223 1101 -143 q 665 -303 828 -303 m 296 293 q 346 108 296 193 q 481 -26 396 24 q 665 -76 565 -76 q 850 -26 765 -76 q 985 108 935 24 q 1035 293 1035 193 q 985 478 1035 393 q 850 613 935 563 q 665 663 765 663 q 481 613 565 663 q 346 478 396 563 q 296 293 296 393 m 406 314 q 474 499 406 435 q 669 563 542 563 q 851 515 778 563 q 925 386 925 467 q 889 303 925 336 q 801 269 853 269 q 710 303 747 269 q 674 386 674 336 q 688 410 674 410 l 696 410 q 713 436 713 410 q 700 476 713 460 q 669 492 688 492 q 640 476 651 492 q 628 436 628 460 l 628 356 q 768 183 628 183 q 849 205 813 183 q 903 258 885 226 l 917 258 q 838 113 894 165 q 669 61 782 61 q 474 127 543 61 q 406 314 406 193 z "},"®":{"ha":843,"x_min":69,"x_max":774,"o":"m 422 207 q 245 254 326 207 q 117 382 164 301 q 69 558 69 463 q 117 735 69 654 q 245 864 164 817 q 422 911 326 911 q 599 864 518 911 q 726 735 679 817 q 774 558 774 654 q 726 382 774 463 q 599 254 679 301 q 422 207 518 207 m 174 558 q 208 435 174 492 q 299 344 242 378 q 422 311 356 311 q 546 344 489 311 q 636 435 603 378 q 669 558 669 492 q 636 682 669 625 q 546 773 603 739 q 422 807 489 807 q 299 773 356 807 q 208 682 242 739 q 174 558 174 625 m 293 733 l 404 733 l 404 674 q 432 723 410 704 q 490 742 454 742 q 548 715 525 742 q 571 644 571 688 q 542 561 571 583 q 460 539 514 539 q 501 527 475 539 q 549 486 528 515 q 571 410 571 457 l 571 393 l 446 393 q 436 494 446 467 q 417 530 426 522 q 404 540 407 538 l 404 393 l 293 393 l 293 733 m 404 600 q 426 557 404 557 q 446 600 446 557 l 446 646 q 426 688 446 688 q 410 676 415 688 q 404 646 404 665 l 404 600 z "},"™":{"ha":1096,"x_min":0,"x_max":1072,"o":"m 124 835 l 0 835 l 0 889 l 429 889 l 429 835 l 306 835 l 306 388 l 124 388 l 124 835 m 453 889 l 661 889 l 783 504 l 863 889 l 1072 889 l 1072 388 l 890 388 l 890 756 l 814 388 l 632 388 l 507 757 l 507 388 l 453 388 l 453 889 z "},"°":{"ha":615,"x_min":42,"x_max":574,"o":"m 308 357 q 175 393 236 357 q 78 490 114 429 q 42 624 42 551 q 78 756 42 696 q 175 853 114 817 q 308 889 236 889 q 441 853 381 889 q 538 756 501 817 q 574 624 574 696 q 538 490 574 551 q 441 393 501 429 q 308 357 381 357 m 218 624 q 244 560 218 586 q 308 533 271 533 q 371 560 344 533 q 397 624 397 586 q 371 686 397 660 q 308 713 344 713 q 244 686 271 713 q 218 624 218 660 z "},"|":{"ha":329,"x_min":69,"x_max":288,"o":"m 69 911 l 288 911 l 288 -89 l 69 -89 l 69 911 z "},"¦":{"ha":357,"x_min":69,"x_max":288,"o":"m 69 911 l 288 911 l 288 486 l 69 486 l 69 911 m 69 336 l 288 336 l 288 -89 l 69 -89 l 69 336 z "},"†":{"ha":758,"x_min":69,"x_max":689,"o":"m 265 528 l 69 528 l 69 756 l 265 756 l 265 889 l 493 889 l 493 756 l 689 756 l 689 528 l 493 528 l 493 242 l 265 242 l 265 528 z "},"‡":{"ha":758,"x_min":69,"x_max":689,"o":"m 265 322 l 69 322 l 69 550 l 265 550 l 265 581 l 69 581 l 69 808 l 265 808 l 265 889 l 493 889 l 493 808 l 689 808 l 689 581 l 493 581 l 493 550 l 689 550 l 689 322 l 493 322 l 493 242 l 265 242 l 265 322 z "},"¢":{"ha":732,"x_min":21,"x_max":711,"o":"m 288 39 q 90 145 158 60 q 21 369 21 231 q 90 590 21 507 q 288 694 158 674 l 288 892 l 444 892 l 444 696 q 637 619 563 679 q 711 465 711 558 q 663 354 711 399 q 547 310 615 310 q 424 359 472 310 q 376 494 376 408 q 429 531 429 494 q 415 585 429 565 q 372 604 400 604 q 331 585 346 604 q 317 531 317 567 l 317 424 q 503 196 317 196 q 610 224 561 196 q 682 294 658 253 l 700 294 q 615 121 675 188 q 444 38 556 54 l 444 -151 l 288 -151 l 288 39 z "},"¤":{"ha":751,"x_min":42,"x_max":710,"o":"m 42 96 l 147 201 q 110 338 110 265 q 146 472 110 407 l 42 576 l 135 671 l 240 565 q 376 603 304 603 q 511 565 450 603 l 617 671 l 710 578 l 604 472 q 642 338 642 411 q 604 201 642 265 l 710 96 l 615 3 l 511 107 q 376 71 446 71 q 240 108 304 71 l 135 3 l 42 96 m 286 338 q 313 274 286 300 q 376 247 339 247 q 439 274 413 247 q 465 338 465 300 q 439 400 465 374 q 376 426 413 426 q 313 400 339 426 q 286 338 286 374 z "},"+":{"ha":758,"x_min":69,"x_max":689,"o":"m 265 243 l 69 243 l 69 471 l 265 471 l 265 667 l 493 667 l 493 471 l 689 471 l 689 243 l 493 243 l 493 47 l 265 47 l 265 243 z "},"−":{"ha":833,"x_min":69,"x_max":689,"o":"m 69 471 l 689 471 l 689 243 l 69 243 l 69 471 z "},"×":{"ha":758,"x_min":79,"x_max":678,"o":"m 218 357 l 79 494 l 240 656 l 379 518 l 517 656 l 678 494 l 540 357 l 678 218 l 517 57 l 379 196 l 240 57 l 79 218 l 218 357 z "},"÷":{"ha":758,"x_min":69,"x_max":689,"o":"m 69 471 l 689 471 l 689 243 l 69 243 l 69 471 m 256 78 q 292 165 256 129 q 381 201 329 201 q 468 165 432 201 q 504 78 504 129 q 468 -10 504 26 q 381 -47 432 -47 q 292 -10 329 -47 q 256 78 256 26 m 256 643 q 292 731 256 694 q 381 767 329 767 q 468 731 432 767 q 504 643 504 694 q 468 555 504 592 q 381 518 432 518 q 292 555 329 518 q 256 643 256 592 z "},"=":{"ha":772,"x_min":69,"x_max":689,"o":"m 69 625 l 689 625 l 689 397 l 69 397 l 69 625 m 69 333 l 689 333 l 689 106 l 69 106 l 69 333 z "},"≠":{"ha":772,"x_min":-56,"x_max":746,"o":"m -56 49 l 69 174 l 69 333 l 229 333 l 293 397 l 69 397 l 69 625 l 522 625 l 672 775 l 746 701 l 669 625 l 689 625 l 689 397 l 442 397 l 376 333 l 689 333 l 689 106 l 149 106 l 18 -25 l -56 49 z "},">":{"ha":718,"x_min":42,"x_max":607,"o":"m 42 182 l 317 310 l 317 321 l 42 458 l 42 625 l 607 371 l 607 258 l 42 0 l 42 182 z "},"<":{"ha":718,"x_min":111,"x_max":676,"o":"m 111 258 l 111 371 l 676 625 l 676 458 l 401 321 l 401 310 l 676 182 l 676 0 l 111 258 z "},"≥":{"ha":708,"x_min":56,"x_max":653,"o":"m 71 338 l 346 421 l 346 428 l 71 517 l 71 653 l 636 488 l 636 360 l 71 192 l 71 338 m 56 181 l 653 181 l 653 1 l 56 1 l 56 181 z "},"≤":{"ha":708,"x_min":56,"x_max":653,"o":"m 72 360 l 72 488 l 638 653 l 638 517 l 363 428 l 363 421 l 638 338 l 638 192 l 72 360 m 56 181 l 653 181 l 653 1 l 56 1 l 56 181 z "},"±":{"ha":758,"x_min":69,"x_max":689,"o":"m 265 417 l 69 417 l 69 644 l 265 644 l 265 840 l 493 840 l 493 644 l 689 644 l 689 417 l 493 417 l 493 221 l 265 221 l 265 417 m 69 203 l 689 203 l 689 -25 l 69 -25 l 69 203 z "},"≈":{"ha":607,"x_min":69,"x_max":538,"o":"m 418 331 q 360 340 388 331 q 292 369 332 350 q 232 394 254 386 q 186 403 210 403 q 130 392 151 403 q 69 354 108 382 l 69 494 q 130 543 110 531 q 185 556 150 556 q 232 547 208 556 q 299 521 256 539 q 365 493 336 503 q 419 483 393 483 q 462 493 443 483 q 513 525 481 503 l 538 543 l 538 397 q 418 331 496 331 m 418 101 q 360 111 388 101 q 292 140 332 121 q 232 165 254 157 q 186 174 210 174 q 130 163 151 174 q 69 125 108 153 l 69 265 q 130 314 110 301 q 185 326 150 326 q 232 318 208 326 q 299 292 256 310 q 365 264 336 274 q 419 254 393 254 q 462 264 443 254 q 513 296 481 274 l 538 314 l 538 168 q 418 101 496 101 z "},"~":{"ha":607,"x_min":69,"x_max":538,"o":"m 418 224 q 360 233 388 224 q 292 263 332 243 q 232 288 254 279 q 186 296 210 296 q 130 285 151 296 q 69 247 108 275 l 69 388 q 130 436 110 424 q 185 449 150 449 q 232 440 208 449 q 299 414 256 432 q 365 386 336 396 q 419 376 393 376 q 462 386 443 376 q 513 418 481 396 l 538 436 l 538 290 q 418 224 496 224 z "},"^":{"ha":560,"x_min":69,"x_max":490,"o":"m 203 889 l 357 889 l 490 625 l 322 625 l 281 735 l 238 625 l 69 625 l 203 889 z "},"%":{"ha":1335,"x_min":69,"x_max":1265,"o":"m 776 958 l 1001 958 l 582 0 l 357 0 l 776 958 m 69 751 q 101 833 69 797 q 188 890 133 869 q 311 911 243 911 q 434 890 379 911 q 521 833 489 869 q 553 751 553 797 l 553 531 q 521 448 553 485 q 434 390 489 411 q 311 369 379 369 q 188 390 243 369 q 101 448 133 411 q 69 531 69 485 l 69 751 m 283 468 q 292 438 283 450 q 311 425 300 425 q 330 438 322 425 q 338 468 338 450 l 338 813 q 330 843 338 831 q 311 856 322 856 q 292 843 300 856 q 283 813 283 831 l 283 468 m 782 360 q 814 442 782 406 q 901 499 846 478 q 1024 519 956 519 q 1147 499 1092 519 q 1233 442 1201 478 q 1265 360 1265 406 l 1265 139 q 1233 56 1265 93 q 1147 -1 1201 19 q 1024 -22 1092 -22 q 901 -1 956 -22 q 814 56 846 19 q 782 139 782 93 l 782 360 m 996 76 q 1004 46 996 58 q 1024 33 1013 33 q 1042 46 1035 33 q 1050 76 1050 58 l 1050 421 q 1042 451 1050 439 q 1024 464 1035 464 q 1004 451 1013 464 q 996 421 996 439 l 996 76 z "},"‰":{"ha":1863,"x_min":69,"x_max":1793,"o":"m 776 958 l 1001 958 l 582 0 l 357 0 l 776 958 m 69 751 q 101 833 69 797 q 188 890 133 869 q 311 911 243 911 q 434 890 379 911 q 521 833 489 869 q 553 751 553 797 l 553 531 q 521 448 553 485 q 434 390 489 411 q 311 369 379 369 q 188 390 243 369 q 101 448 133 411 q 69 531 69 485 l 69 751 m 283 468 q 292 438 283 450 q 311 425 300 425 q 330 438 322 425 q 338 468 338 450 l 338 813 q 330 843 338 831 q 311 856 322 856 q 292 843 300 856 q 283 813 283 831 l 283 468 m 782 360 q 814 442 782 406 q 901 499 846 478 q 1024 519 956 519 q 1147 499 1092 519 q 1233 442 1201 478 q 1265 360 1265 406 l 1265 139 q 1233 56 1265 93 q 1147 -1 1201 19 q 1024 -22 1092 -22 q 901 -1 956 -22 q 814 56 846 19 q 782 139 782 93 l 782 360 m 996 76 q 1004 46 996 58 q 1024 33 1013 33 q 1042 46 1035 33 q 1050 76 1050 58 l 1050 421 q 1042 451 1050 439 q 1024 464 1035 464 q 1004 451 1013 464 q 996 421 996 439 l 996 76 m 1310 363 q 1342 444 1310 408 q 1428 501 1374 481 q 1551 522 1483 522 q 1674 501 1619 522 q 1761 444 1729 481 q 1793 363 1793 408 l 1793 142 q 1761 59 1793 96 q 1674 1 1729 22 q 1551 -19 1619 -19 q 1428 1 1483 -19 q 1342 59 1374 22 q 1310 142 1310 96 l 1310 363 m 1524 79 q 1532 49 1524 61 q 1551 36 1540 36 q 1570 49 1563 36 q 1578 79 1578 61 l 1578 424 q 1570 454 1578 442 q 1551 467 1563 467 q 1532 454 1540 467 q 1524 424 1524 442 l 1524 79 z "},"̈":{"ha":0,"x_min":42,"x_max":379,"o":"m 121 951 q 65 975 89 951 q 42 1031 42 999 q 65 1085 42 1063 q 121 1108 89 1108 q 176 1085 153 1108 q 199 1031 199 1063 q 176 975 199 999 q 121 951 153 951 m 222 1031 q 246 1085 222 1063 q 301 1108 269 1108 q 356 1085 333 1108 q 379 1031 379 1063 q 356 975 379 999 q 301 951 333 951 q 246 975 269 951 q 222 1031 222 999 z "},"̇":{"ha":0,"x_min":42,"x_max":199,"o":"m 121 951 q 65 975 89 951 q 42 1031 42 999 q 65 1085 42 1063 q 121 1108 89 1108 q 176 1085 153 1108 q 199 1031 199 1063 q 176 975 199 999 q 121 951 153 951 z "},"̀":{"ha":0,"x_min":42,"x_max":175,"o":"m 100 950 l 42 1111 l 157 1111 l 175 950 l 100 950 z "},"́":{"ha":0,"x_min":42,"x_max":175,"o":"m 60 1111 l 175 1111 l 117 950 l 42 950 l 60 1111 z "},"̋":{"ha":0,"x_min":42,"x_max":315,"o":"m 60 1111 l 175 1111 l 117 950 l 42 950 l 60 1111 m 200 1111 l 315 1111 l 257 950 l 182 950 l 200 1111 z "},"̂":{"ha":0,"x_min":42,"x_max":261,"o":"m 128 1110 l 175 1110 l 261 949 l 174 949 l 151 1026 l 129 949 l 42 949 l 128 1110 z "},"̌":{"ha":0,"x_min":42,"x_max":261,"o":"m 42 1110 l 129 1110 l 151 1032 l 174 1110 l 261 1110 l 175 949 l 128 949 l 42 1110 z "},"̆":{"ha":0,"x_min":8,"x_max":278,"o":"m 143 976 q 47 1015 86 976 q 8 1111 8 1054 l 107 1111 q 117 1085 107 1096 q 143 1075 128 1075 q 169 1085 158 1075 q 179 1111 179 1096 l 278 1111 q 239 1015 278 1054 q 143 976 200 976 z "},"̊":{"ha":0,"x_min":42,"x_max":231,"o":"m 136 944 q 69 972 97 944 q 42 1039 42 1000 q 69 1106 42 1079 q 136 1133 97 1133 q 203 1106 176 1133 q 231 1039 231 1079 q 203 972 231 1000 q 136 944 176 944 m 111 1039 q 119 1022 111 1029 q 136 1014 126 1014 q 154 1022 147 1014 q 161 1039 161 1029 q 154 1057 161 1050 q 136 1064 147 1064 q 119 1057 126 1064 q 111 1039 111 1050 z "},"̃":{"ha":0,"x_min":42,"x_max":315,"o":"m 246 979 q 172 1001 217 979 q 148 1012 168 1003 q 110 1021 128 1021 q 76 1015 89 1021 q 42 993 64 1008 l 42 1075 q 60 1091 47 1081 q 83 1106 72 1101 q 110 1111 94 1111 q 142 1105 124 1111 q 176 1090 160 1099 q 213 1075 194 1082 q 246 1068 231 1068 q 270 1074 260 1068 q 294 1088 281 1079 q 315 1103 307 1097 l 315 1018 q 246 979 292 979 z "},"̄":{"ha":0,"x_min":42,"x_max":285,"o":"m 42 1074 l 285 1074 l 285 983 l 42 983 l 42 1074 z "},"̒":{"ha":0,"x_min":42,"x_max":171,"o":"m 42 1039 q 60 1092 42 1074 q 114 1111 79 1111 l 114 1063 q 90 1039 90 1063 l 90 1015 l 171 1015 l 171 886 l 42 886 l 42 1039 z "},"̣":{"ha":0,"x_min":42,"x_max":199,"o":"m 121 -226 q 65 -203 89 -226 q 42 -147 42 -179 q 65 -92 42 -115 q 121 -69 89 -69 q 176 -92 153 -69 q 199 -147 199 -115 q 176 -203 199 -179 q 121 -226 153 -226 z "},"̦":{"ha":0,"x_min":42,"x_max":175,"o":"m 60 -64 l 175 -64 l 117 -225 l 42 -225 l 60 -64 z "},"̧":{"ha":0,"x_min":42,"x_max":276,"o":"m 161 -258 q 76 -229 110 -258 q 42 -157 42 -200 l 121 -157 q 133 -181 121 -171 q 161 -190 144 -190 q 188 -180 178 -190 q 199 -151 199 -169 q 135 -110 199 -110 l 110 -110 l 135 0 l 215 0 l 179 -56 q 249 -87 222 -61 q 276 -151 276 -114 q 243 -228 276 -197 q 161 -258 210 -258 z "},"̨":{"ha":0,"x_min":42,"x_max":217,"o":"m 217 -267 q 92 -231 142 -262 q 42 -150 42 -200 q 69 -69 42 -110 q 140 0 96 -29 l 197 0 q 147 -55 167 -21 q 128 -119 128 -89 q 217 -192 128 -186 l 217 -267 z "},"̱":{"ha":0,"x_min":42,"x_max":285,"o":"m 42 -187 l 285 -187 l 285 -278 l 42 -278 l 42 -187 z "},"¨":{"ha":421,"x_min":42,"x_max":379,"o":"m 121 951 q 65 975 89 951 q 42 1031 42 999 q 65 1085 42 1063 q 121 1108 89 1108 q 176 1085 153 1108 q 199 1031 199 1063 q 176 975 199 999 q 121 951 153 951 m 222 1031 q 246 1085 222 1063 q 301 1108 269 1108 q 356 1085 333 1108 q 379 1031 379 1063 q 356 975 379 999 q 301 951 333 951 q 246 975 269 951 q 222 1031 222 999 z "},"˙":{"ha":240,"x_min":42,"x_max":199,"o":"m 121 951 q 65 975 89 951 q 42 1031 42 999 q 65 1085 42 1063 q 121 1108 89 1108 q 176 1085 153 1108 q 199 1031 199 1063 q 176 975 199 999 q 121 951 153 951 z "},"`":{"ha":217,"x_min":42,"x_max":175,"o":"m 100 950 l 42 1111 l 157 1111 l 175 950 l 100 950 z "},"´":{"ha":217,"x_min":42,"x_max":175,"o":"m 60 1111 l 175 1111 l 117 950 l 42 950 l 60 1111 z "},"˝":{"ha":357,"x_min":42,"x_max":315,"o":"m 60 1111 l 175 1111 l 117 950 l 42 950 l 60 1111 m 200 1111 l 315 1111 l 257 950 l 182 950 l 200 1111 z "},"ˆ":{"ha":303,"x_min":42,"x_max":261,"o":"m 128 1110 l 175 1110 l 261 949 l 174 949 l 151 1026 l 129 949 l 42 949 l 128 1110 z "},"ˇ":{"ha":303,"x_min":42,"x_max":261,"o":"m 42 1110 l 129 1110 l 151 1032 l 174 1110 l 261 1110 l 175 949 l 128 949 l 42 1110 z "},"˘":{"ha":272,"x_min":8,"x_max":278,"o":"m 143 976 q 47 1015 86 976 q 8 1111 8 1054 l 107 1111 q 117 1085 107 1096 q 143 1075 128 1075 q 169 1085 158 1075 q 179 1111 179 1096 l 278 1111 q 239 1015 278 1054 q 143 976 200 976 z "},"˚":{"ha":272,"x_min":42,"x_max":231,"o":"m 136 944 q 69 972 97 944 q 42 1039 42 1000 q 69 1106 42 1079 q 136 1133 97 1133 q 203 1106 176 1133 q 231 1039 231 1079 q 203 972 231 1000 q 136 944 176 944 m 111 1039 q 119 1022 111 1029 q 136 1014 126 1014 q 154 1022 147 1014 q 161 1039 161 1029 q 154 1057 161 1050 q 136 1064 147 1064 q 119 1057 126 1064 q 111 1039 111 1050 z "},"˜":{"ha":357,"x_min":42,"x_max":315,"o":"m 246 979 q 172 1001 217 979 q 148 1012 168 1003 q 110 1021 128 1021 q 76 1015 89 1021 q 42 993 64 1008 l 42 1075 q 60 1091 47 1081 q 83 1106 72 1101 q 110 1111 94 1111 q 142 1105 124 1111 q 176 1090 160 1099 q 213 1075 194 1082 q 246 1068 231 1068 q 270 1074 260 1068 q 294 1088 281 1079 q 315 1103 307 1097 l 315 1018 q 246 979 292 979 z "},"¯":{"ha":326,"x_min":42,"x_max":285,"o":"m 42 1074 l 285 1074 l 285 983 l 42 983 l 42 1074 z "},"¸":{"ha":318,"x_min":42,"x_max":276,"o":"m 161 -258 q 76 -229 110 -258 q 42 -157 42 -200 l 121 -157 q 133 -181 121 -171 q 161 -190 144 -190 q 188 -180 178 -190 q 199 -151 199 -169 q 135 -110 199 -110 l 110 -110 l 135 0 l 215 0 l 179 -56 q 249 -87 222 -61 q 276 -151 276 -114 q 243 -228 276 -197 q 161 -258 210 -258 z "},"˛":{"ha":258,"x_min":42,"x_max":217,"o":"m 217 -267 q 92 -231 142 -262 q 42 -150 42 -200 q 69 -69 42 -110 q 140 0 96 -29 l 197 0 q 147 -55 167 -21 q 128 -119 128 -89 q 217 -192 128 -186 l 217 -267 z "},"ʼ":{"ha":833,"x_min":0,"x_max":0,"o":""}}}
